<svg xmlns="http://www.w3.org/2000/svg" viewBox="0 0 1010 1010"><circle cx="505" cy="505" r="505" fill="#FFB933"/><path fill="#FC6E51" d="M722.88 538.998c-20.634 0-38.032-17.447-39.631-39.738l-.769-10.82h80.74l-.769 10.82c-1.597 22.29-18.976 39.738-39.571 39.738zM680.32 357.81h82.23v130.63h-82.23zm-87.438 0h87.438v130.63h-87.438zm43.191 181.188c-20.604 0-37.993-17.447-39.6-39.738l-.78-10.82h80.8l-.789 10.84c-1.628 22.27-19.046 39.718-39.63 39.718zM505 357.81h87.882v130.63H505zm44.306 181.188c-20.615 0-38.013-17.457-39.6-39.738l-.77-10.82h80.73l-.78 10.82c-1.607 22.29-18.986 39.738-39.58 39.738zM417.986 357.81H505v130.63h-87.014zm44.563 181.188c-20.625 0-38.033-17.447-39.631-39.738l-.77-10.82h80.761l-.77 10.82c-1.617 22.29-18.996 39.738-39.59 39.738zM330.538 357.81h87.448v130.63h-87.448zm45.224 181.188c-20.624 0-38.024-17.457-39.602-39.738l-.769-10.82h80.76l-.778 10.83c-1.618 22.28-19.017 39.728-39.611 39.728z"/><path fill="#FFF" d="M363.58 222.15h282.83v94.747H363.58z"/><path fill="#FC6E51" d="M247.45 357.81h83.088v130.63H247.45zm41.525 181.188c-21.098 0-40.105-18.039-41.505-39.403l-.02-11.155h81.925l-.78 10.83c-1.608 22.28-19.016 39.728-39.62 39.728z"/><path fill="#FFF" d="M555.5 756.514V583.926h-101v172.588H262.6V531.779l13.473 4.784c4.636 1.636 8.858 2.435 12.902 2.435 14.143 0 27.35-8.334 34.472-21.738l8.926-16.797 8.916 16.807c7.122 13.394 20.318 21.728 34.473 21.728 14.133 0 27.33-8.334 34.452-21.729l8.926-16.787 8.926 16.787c7.122 13.395 20.338 21.729 34.483 21.729 14.124 0 27.33-8.334 34.442-21.729l8.936-16.816 8.917 16.817c7.101 13.394 20.318 21.728 34.462 21.728 14.134 0 27.341-8.334 34.452-21.748l8.917-16.826 8.927 16.816c7.12 13.424 20.328 21.758 34.471 21.758 14.134 0 27.35-8.334 34.472-21.738l8.927-16.797 8.917 16.807c7.111 13.394 20.328 21.728 34.49 21.728 3.453 0 7.043-.64 11.275-2.041l13.246-4.34v223.897H555.5z"/><path fill="#FFB933" d="M454.5 583.926h101v172.588h-101z"/><path fill="#ACAF48" d="M242.4 756.514h525.2v31.336H242.4z"/><path fill="#3BAFDA" d="M600.95 585.71h111.1v121.38h-111.1zm-303-.562h111.1V707.65h-111.1z"/><path fill="#454545" d="M272.7 752.45h-20.2V528.643h20.2V752.45zm484.8 0h-20.2V528.643h20.2V752.45z"/><path fill="#BDC3C7" d="M454.5 764.76V583.926h101V764.76"/><path fill="#454545" d="M565.6 764.76h-20.2V594.025h-80.8V764.76h-20.2V573.826h121.2V764.76z"/><path fill="#454545" d="M535.251 679.679h-20.2v-19.214h20.2v19.214zM772.65 488.44h-20.2V367.91h-494.9v120.53h-20.2V347.71h535.3v140.73z"/><path fill="#454545" d="M722.88 549.099c-18.464 0-34.808-10.9-43.413-27.095-8.615 16.195-24.95 27.095-43.394 27.095-18.459 0-34.788-10.9-43.393-27.124-8.6 16.224-24.925 27.124-43.374 27.124-18.464 0-34.793-10.9-43.394-27.095-8.605 16.195-24.93 27.095-43.363 27.095-18.464 0-34.798-10.89-43.409-27.095-8.61 16.205-24.939 27.095-43.378 27.095-18.465 0-34.793-10.89-43.394-27.095-8.606 16.205-24.94 27.095-43.393 27.095-26.7 0-49.85-22.222-51.605-49.524l-.02-21.235h535.3l-.079 20.624c-1.805 28.386-23.622 50.135-49.691 50.135zm-29.556-50.56c1.224 17.044 14.16 30.36 29.556 30.36 15.367 0 28.278-13.316 29.491-30.36h-59.047zm-86.776 0c1.227 17.054 14.153 30.36 29.525 30.36 15.372 0 28.308-13.306 29.556-30.36h-59.081zm-86.768 0c1.208 17.044 14.134 30.36 29.526 30.36 15.362 0 28.278-13.316 29.506-30.36H519.78zm-86.787 0c1.223 17.044 14.159 30.36 29.556 30.36 15.357 0 28.272-13.316 29.516-30.36h-59.072zm-86.757 0c1.208 17.044 14.134 30.36 29.526 30.36 15.372 0 28.293-13.316 29.535-30.36h-59.061zm-88.686 0v.385c1.046 15.949 15.446 29.974 31.425 29.974 15.386 0 28.317-13.305 29.545-30.359h-60.97z"/><path fill="#454545" d="M340.639 498.49h-20.2V357.81h20.2v140.68zm87.447 0h-20.2V357.81h20.2v140.68zm174.896 0h-20.2V357.81h20.2v140.68zm87.438 0h-20.2V357.81h20.2v140.68zm-175.32 0h-20.2V357.81h20.2v140.68zM777.7 797.95H232.3v-51.536h545.4v51.535zm-525.2-20.201h505v-11.136h-505v11.136zM722.15 717.188h-131.3V575.611h131.3v141.577zm-111.1-20.2h90.9V595.81h-90.9v101.178zM419.15 717.751h-131.3V575.049h131.3V717.75zm-111.1-20.2h90.9V595.249h-90.9v102.302z"/><g fill="#454545"><path d="M428.086 362.752h-20.2V323.2h20.2v39.552zm174.896 12.851h-20.2V323.2h20.2v52.404z"/><path d="M646.41 326.997H363.58c-5.577 0-10.1-4.527-10.1-10.1V222.15c0-5.572 4.523-10.1 10.1-10.1h282.83c5.577 0 10.1 4.528 10.1 10.1v94.747c0 5.573-4.523 10.1-10.1 10.1zm-272.73-20.2h262.63V232.25H373.68v74.547z"/></g><path fill="#454545" d="M612.313 277.75H397.688v-20.2h214.625v20.2z"/></svg>